<svg width="512" height="512" viewBox="0 0 512 512" fill="none" xmlns="http://www.w3.org/2000/svg"><rect width="512" height="512" fill="#2563eb"/><path d="M256 128C209.21 128 171.333 165.877 171.333 212.667V298.667C171.333 345.456 209.21 383.333 256 383.333C302.79 383.333 340.667 345.456 340.667 298.667V212.667C340.667 165.877 302.79 128 256 128Z" fill="white"/><path d="M256 170.667C233.564 170.667 214.667 189.564 214.667 212V298.667C214.667 321.103 233.564 340 256 340C278.436 340 297.333 321.103 297.333 298.667V212C297.333 189.564 278.436 170.667 256 170.667Z" fill="#2563eb"/><text x="256" y="448" text-anchor="middle" fill="white" font-family="Arial, sans-serif" font-size="28" font-weight="bold">DIGITAL MOUNTAIN</text></svg>
