<svg version="1.1" id="Layer_1" xmlns="http://www.w3.org/2000/svg" xmlns:xlink="http://www.w3.org/1999/xlink" x="0px" y="0px"
	 width="100%" viewBox="0 0 799 477" enable-background="new 0 0 799 477" xml:space="preserve">
<path fill="#000000" opacity="1.000000" stroke="none" 
	d="
M601.000000,478.000000 
	C400.666656,478.000000 200.833328,478.000000 1.000000,478.000000 
	C1.000000,319.000000 1.000000,160.000000 1.000000,1.000000 
	C267.333344,1.000000 533.666687,1.000000 800.000000,1.000000 
	C800.000000,160.000000 800.000000,319.000000 800.000000,478.000000 
	C733.833313,478.000000 667.666687,478.000000 601.000000,478.000000 
M248.231293,143.681427 
	C243.974838,149.112259 241.644043,149.566635 235.423721,147.027649 
	C234.004578,146.448364 230.848312,146.764526 230.448883,147.602036 
	C228.152222,152.417664 220.371140,153.412735 221.476898,160.480972 
	C221.497650,160.613678 220.952911,160.804184 220.711533,161.013306 
	C218.502319,162.927383 216.341537,164.899887 214.084137,166.754929 
	C212.701111,167.891418 211.303680,169.184067 209.682571,169.818649 
	C206.863235,170.922287 203.865799,171.570984 200.476791,172.544312 
	C199.872345,171.969910 198.815323,170.965424 197.326340,169.550446 
	C196.617645,170.500076 196.025726,171.291672 195.435364,172.084427 
	C191.370346,177.543091 187.292343,182.992157 183.246124,188.464722 
	C180.973679,191.538193 178.368774,194.798431 174.301285,192.085724 
	C171.307343,190.088989 169.527100,190.948975 167.308517,192.764084 
	C164.727005,194.876114 162.051636,196.873428 159.329620,198.988403 
	C158.939987,207.009689 149.813965,203.230789 146.173248,207.722244 
	C218.573105,207.722244 290.612152,207.722244 362.651184,207.722244 
	C362.385773,207.338684 362.120361,206.955124 361.854950,206.571579 
	C363.845581,205.156891 365.979797,203.904709 367.799561,202.296707 
	C373.039185,197.666809 378.212982,192.958023 383.299652,188.160400 
	C390.353424,181.507492 397.723572,177.294876 408.356506,177.438461 
	C417.069214,177.556107 426.253662,174.684814 433.052307,167.701309 
	C434.228638,166.492950 436.114807,165.975632 437.673126,165.139130 
	C437.985870,165.479706 438.298645,165.820282 438.611420,166.160873 
	C438.087402,167.652206 437.961731,169.524246 436.966644,170.565338 
	C433.647369,174.038177 433.407288,177.965836 434.897888,182.081970 
	C435.630066,184.103775 436.872498,187.052338 438.387970,187.402924 
	C440.366547,187.860626 443.043427,186.486694 445.041687,185.276428 
	C446.498413,184.394150 447.609222,182.636765 448.418304,181.038666 
	C453.417969,171.163208 456.883331,160.839874 457.847900,149.698410 
	C458.348206,143.919418 459.419647,138.175201 460.521912,132.471085 
	C460.896881,130.530624 462.155670,128.760941 463.626617,125.581772 
	C465.044891,128.694473 466.326416,130.366730 466.529968,132.161255 
	C467.223053,138.270920 467.402374,144.437866 468.049438,150.554184 
	C468.382233,153.699951 468.874481,156.947601 470.017242,159.866302 
	C473.239685,168.096786 476.998352,176.025864 470.864624,184.712631 
	C468.547760,187.993774 470.152893,190.438263 474.313965,191.668991 
	C475.585297,192.045013 476.777466,192.685333 478.045258,193.077209 
	C484.122314,194.955536 486.804993,193.459610 489.261566,187.486893 
	C492.039337,180.733109 495.091522,174.091248 498.073730,167.422791 
	C499.768372,163.633392 501.731232,159.952148 503.194153,156.078995 
	C503.570435,155.082825 502.677399,153.460068 502.070496,152.277542 
	C501.336639,150.847610 499.331268,149.399612 499.543427,148.273544 
	C500.362488,143.925995 498.176239,142.783249 494.578125,141.958710 
	C487.271851,140.284439 487.032745,139.481659 488.453949,132.067856 
	C490.640167,120.663528 490.423615,109.824005 480.460754,101.503754 
	C478.825806,100.138336 477.238434,98.407280 476.378204,96.506256 
	C475.444824,94.443535 475.163269,92.001472 474.989258,89.695267 
	C474.455139,82.615601 474.108582,75.521790 473.689087,68.433472 
	C460.342468,86.331467 450.258301,105.030266 448.013885,127.095840 
	C446.702118,139.992432 437.757874,152.384247 419.826263,147.218033 
	C417.332214,146.499451 414.789368,146.975082 412.422089,149.394852 
	C408.865936,153.029800 404.627777,156.120880 400.278931,158.790466 
	C398.742889,159.733353 396.031158,158.761002 393.856201,158.663055 
	C394.070312,156.789291 393.671753,154.507599 394.601868,153.110535 
	C399.280579,146.082977 401.851685,138.469849 402.013458,128.975891 
	C400.140656,130.673340 398.484467,131.846237 397.254578,133.364441 
	C395.304688,135.771408 393.788940,138.531570 391.824982,140.925262 
	C387.082428,146.705399 381.547089,151.953262 377.572571,158.204834 
	C374.812408,162.546295 371.182770,165.838211 368.122498,169.722885 
	C362.382355,177.009262 357.440399,184.920761 352.072266,192.505585 
	C349.770752,195.757462 347.375916,198.971069 344.712555,201.921387 
	C343.959351,202.755768 342.108307,202.599075 340.760742,202.896927 
	C340.890717,201.599838 340.668030,200.125351 341.214935,199.037979 
	C343.070068,195.349670 345.444733,191.912720 347.174744,188.173309 
	C352.588470,176.471497 357.798187,164.675323 363.385071,152.252869 
	C361.554413,149.606583 359.094482,151.508438 356.603638,153.424576 
	C354.035767,155.399979 351.696381,158.295212 347.914185,155.549469 
	C347.501984,155.250229 346.651245,155.616028 346.016632,155.550278 
	C344.415710,155.384476 342.822083,155.148392 341.225525,154.940475 
	C342.227570,153.571045 342.975220,151.859589 344.276154,150.891998 
	C349.617493,146.919312 355.219757,143.294907 360.518951,139.269745 
	C362.120544,138.053192 363.379272,136.101944 364.214996,134.228485 
	C365.396667,131.579544 365.849731,128.612686 366.950623,125.919212 
	C369.687988,119.221962 372.615723,112.602524 374.961792,107.130219 
	C373.130920,104.862083 371.112488,103.414551 371.317291,102.428940 
	C372.108154,98.622520 373.123505,94.706856 374.928986,91.294174 
	C382.630188,76.737579 383.956757,72.387459 382.437775,57.031368 
	C382.092133,53.536861 380.210968,49.833900 378.047272,46.975796 
	C375.640656,43.796837 374.438446,41.145115 376.472382,37.425770 
	C377.678802,35.219624 378.435883,32.767776 379.394989,30.426399 
	C378.818970,30.009851 378.242981,29.593304 377.666962,29.176756 
	C377.372070,29.963923 377.245605,30.879881 376.756927,31.518892 
	C369.980133,40.380489 363.071228,49.141979 356.357178,58.050457 
	C343.868164,74.621445 327.805725,88.144791 316.384674,105.694710 
	C311.835938,112.684326 308.211334,119.475754 308.423737,128.927460 
	C310.488495,127.404472 312.444611,126.486069 313.657684,124.972237 
	C317.944244,119.622734 321.880768,113.992264 326.184814,108.657722 
	C327.056763,107.577019 328.952362,107.322227 331.174347,106.330299 
	C327.908142,115.504417 314.725372,134.543594 308.164520,138.990799 
	C305.887268,140.534424 302.393066,141.203506 299.612488,140.886826 
	C294.290741,140.280655 286.719208,145.337952 285.624542,150.600586 
	C285.059021,153.319550 283.585144,155.884323 282.311615,158.412964 
	C280.505157,161.999817 278.562988,165.522720 276.549408,168.997971 
	C275.998169,169.949387 275.078766,170.765976 274.164856,171.413818 
	C271.590790,173.238525 269.003754,175.066147 266.285309,176.659775 
	C263.722046,178.162445 261.097443,179.802475 258.279724,180.532028 
	C256.756653,180.926376 254.094391,180.034576 253.207474,178.809647 
	C252.467438,177.787552 253.492844,175.419617 253.872757,173.677475 
	C254.134064,172.479340 254.633545,171.333664 255.018066,170.161758 
	C256.266632,166.356400 257.323517,162.468353 258.909973,158.809784 
	C259.242065,158.043976 261.626862,157.640091 262.878815,157.916367 
	C265.163025,158.420410 267.467773,160.569702 269.481567,160.250595 
	C276.982788,159.061996 283.463013,149.800568 280.288239,143.270325 
	C277.177673,136.872147 280.716675,132.366882 282.365570,127.589470 
	C284.600037,121.115547 289.109528,115.459862 291.723328,109.076553 
	C296.342926,97.794830 300.268372,86.228859 305.039795,73.273773 
	C301.831696,73.784508 299.708282,73.732903 297.910553,74.472733 
	C287.171021,78.892372 278.108551,86.930908 266.308716,89.123299 
	C265.412109,89.289886 264.314484,89.943855 263.869385,90.700264 
	C261.917725,94.016953 260.289093,97.525116 258.308777,100.823006 
	C257.063202,102.897308 256.405396,106.339645 252.560822,104.470680 
	C248.661636,102.575150 251.093857,100.193062 252.037476,97.903137 
	C252.098846,97.754211 251.729630,97.427841 251.503174,97.100990 
	C251.062912,97.276276 250.534073,97.352982 250.185577,97.644951 
	C238.355759,107.555763 225.106491,115.818527 215.138626,127.901245 
	C213.884857,129.421036 212.315887,130.816238 210.625656,131.818390 
	C200.152649,138.027954 192.929337,147.383881 186.232086,157.153687 
	C183.766800,160.749985 182.253265,164.998703 179.685059,170.208710 
	C183.989105,169.511383 187.504242,169.940186 189.368317,168.387207 
	C191.699295,166.445190 192.127121,162.322632 194.348602,160.123260 
	C198.653854,155.860840 203.598663,152.233551 208.395248,148.492813 
	C208.956085,148.055420 210.261490,148.677673 211.206024,148.604889 
	C213.021133,148.464981 215.318634,148.813980 216.555145,147.852753 
	C226.130585,140.409073 235.635834,132.858612 244.836533,124.961090 
	C247.090378,123.026489 248.183685,119.713577 249.733932,116.990723 
	C253.657806,110.098862 259.960938,104.783165 267.101959,106.472900 
	C268.918579,106.902748 270.579773,107.989410 272.312378,108.774284 
	C271.345306,110.590508 270.746002,112.777023 269.351013,114.162361 
	C260.811493,122.642891 253.631775,132.050919 248.231293,143.681427 
M106.960434,427.420746 
	C112.111603,416.071564 117.262772,404.722412 122.778725,392.569519 
	C125.605797,410.945496 128.246872,428.494537 131.132782,446.003204 
	C131.323318,447.159149 133.318405,448.757202 134.581238,448.862274 
	C138.873230,449.219391 143.213287,448.998779 147.704590,448.998779 
	C141.596939,414.162170 135.534470,379.583191 129.471985,345.004242 
	C129.139557,344.943359 128.807114,344.882507 128.474686,344.821655 
	C117.189552,369.464417 105.904419,394.107178 94.627144,418.732788 
	C83.694214,394.022552 72.844673,369.500824 61.995140,344.979065 
	C61.646381,345.067291 61.297626,345.155518 60.948872,345.243744 
	C54.204227,379.684204 47.459583,414.124664 40.667625,448.806732 
	C46.521221,448.806732 51.633652,448.806732 56.802788,448.806732 
	C60.078796,430.435516 63.323353,412.240662 66.814720,392.661713 
	C76.239075,413.933228 85.125359,433.990295 94.362930,454.840240 
	C98.681427,445.270721 102.572586,436.648132 106.960434,427.420746 
M181.037003,288.421143 
	C171.551361,266.850952 162.065704,245.280746 152.580063,223.710541 
	C152.193909,223.834976 151.807770,223.959396 151.421616,224.083817 
	C144.819839,257.882782 138.218079,291.681763 131.515213,325.998383 
	C136.424927,325.998383 140.576447,326.195007 144.687378,325.873138 
	C145.851379,325.781982 147.679611,324.322235 147.879715,323.244446 
	C151.086380,305.973297 154.078384,288.662292 157.246597,270.635712 
	C166.357285,291.191498 175.166397,311.066864 184.359985,331.809692 
	C193.760132,311.176239 202.649200,291.664581 212.163834,270.779877 
	C215.275375,290.033478 218.174210,307.970917 221.044525,325.731873 
	C226.695251,325.731873 231.774979,325.731873 236.796249,325.731873 
	C230.767380,291.612335 224.782532,257.742004 218.797684,223.871689 
	C218.423904,223.918350 218.050125,223.964996 217.676331,224.011658 
	C206.702499,247.946732 195.728668,271.881805 184.477356,296.422058 
	C183.307648,293.478851 182.423279,291.253540 181.037003,288.421143 
M751.481201,352.000671 
	C748.714844,352.000671 745.948486,352.000671 742.789429,352.000671 
	C742.789429,373.937561 742.789429,395.288055 742.789429,417.467102 
	C719.472656,393.055237 696.769470,369.285858 673.207581,344.617432 
	C673.207581,380.450073 673.207581,414.535675 673.207581,448.790039 
	C678.485657,448.790039 683.555847,448.790039 689.017212,448.790039 
	C689.017212,427.212341 689.017212,405.839752 689.017212,383.304718 
	C712.522156,407.836884 735.261719,431.570190 758.698853,456.031525 
	C758.698853,420.551392 758.698853,386.371490 758.698853,352.000671 
	C756.418701,352.000671 754.437744,352.000671 751.481201,352.000671 
M376.000671,440.458069 
	C376.000671,443.230591 376.000671,446.003082 376.000671,448.723999 
	C381.622925,448.723999 386.694611,448.723999 392.166321,448.723999 
	C392.166321,427.096466 392.166321,405.741211 392.166321,383.457520 
	C415.567139,407.879761 438.307617,431.612854 461.636200,455.959747 
	C461.636200,420.458679 461.636200,386.260315 461.636200,352.366882 
	C456.191193,352.366882 451.112213,352.366882 445.853516,352.366882 
	C445.853516,373.990265 445.853516,395.247864 445.853516,417.536102 
	C422.544647,393.125732 399.845978,369.354370 377.147308,345.583038 
	C376.765106,345.801270 376.382874,346.019501 376.000671,346.237732 
	C376.000671,377.313904 376.000671,408.390076 376.000671,440.458069 
M181.047195,361.428314 
	C179.639450,362.844269 178.291962,364.326752 176.814301,365.665527 
	C166.234863,375.251160 161.945297,387.645325 162.142715,401.410034 
	C162.342026,415.308380 167.063431,427.548279 177.702805,437.327698 
	C192.034134,450.500671 208.774384,454.093353 226.972427,449.359589 
	C251.825623,442.894684 268.085876,418.001038 263.181671,391.345978 
	C258.876129,367.944733 237.986557,350.863647 214.945374,350.050934 
	C202.589264,349.615143 191.438644,353.425385 181.047195,361.428314 
M263.989441,245.518356 
	C255.788406,253.640274 251.732758,263.818848 251.138214,275.008179 
	C250.216019,292.363831 255.867432,307.220764 270.370941,317.849304 
	C283.902710,327.765717 299.048737,330.986389 315.039612,326.320740 
	C341.684387,318.546692 356.024536,293.855927 349.930298,266.921722 
	C345.252716,246.248688 327.991089,231.225296 307.680847,229.135681 
	C290.975983,227.417007 276.045502,231.997192 263.989441,245.518356 
M555.000610,263.500000 
	C555.000610,273.878296 555.000610,284.256561 555.000610,295.615936 
	C531.710693,271.214050 509.206177,247.635162 486.284821,223.619461 
	C486.284821,258.326752 486.284821,292.052795 486.284821,325.712646 
	C491.311737,325.712646 496.049500,325.712646 501.187500,325.712646 
	C501.187500,304.086548 501.187500,282.744324 501.187500,261.149139 
	C524.098083,284.988281 546.679871,308.485260 569.712158,332.451080 
	C569.712158,298.002289 569.712158,264.608643 569.712158,231.290405 
	C564.680603,231.290405 559.942383,231.290405 555.000610,231.290405 
	C555.000610,241.885880 555.000610,252.192947 555.000610,263.500000 
M601.468262,312.978851 
	C616.683716,329.306458 639.440308,332.194763 656.848389,323.897888 
	C675.947815,314.794891 682.762817,298.576447 681.631470,276.000671 
	C675.043823,276.000671 668.426086,276.000671 661.808350,276.000671 
	C655.225525,276.000671 648.642700,276.000671 642.357300,276.000671 
	C642.357300,281.454865 642.357300,286.198242 642.357300,291.283997 
	C650.105713,291.283997 657.497559,291.283997 664.911865,291.283997 
	C663.569702,304.398499 645.405823,318.459961 628.758118,312.414398 
	C610.944397,305.945343 600.416626,290.533752 604.907410,269.372192 
	C609.088928,249.668289 633.845703,236.867325 652.023132,246.704712 
	C657.688416,249.770660 662.482971,254.445541 667.833069,258.502930 
	C670.801514,255.456390 674.275208,251.891312 677.634705,248.443451 
	C664.421936,232.161484 647.233887,225.672623 626.511536,230.089767 
	C604.866516,234.703568 590.085449,252.959198 588.141418,274.429596 
	C586.848816,288.706329 591.076172,301.677155 601.468262,312.978851 
M281.000671,403.497589 
	C280.957428,412.314392 280.275543,421.252594 283.967621,429.589081 
	C290.539978,444.429077 302.277924,450.786835 318.300293,451.114471 
	C336.333191,451.483246 353.629517,435.344452 353.120392,416.489014 
	C352.581238,396.521790 353.003571,376.528717 352.990356,356.546936 
	C352.989380,355.107880 352.860962,353.668915 352.793793,352.271667 
	C347.716461,352.271667 342.979980,352.271667 338.000671,352.271667 
	C338.000671,367.834412 338.103912,383.128418 337.955444,398.419952 
	C337.885193,405.655853 337.718384,412.930725 336.905701,420.109863 
	C335.792908,429.940308 325.671021,438.072601 316.487366,436.814362 
	C303.288666,435.006073 296.935974,426.486115 296.980347,414.412231 
	C297.051300,395.096741 297.004303,375.780853 296.989197,356.465118 
	C296.988068,355.032867 296.842560,353.600739 296.771423,352.300537 
	C291.325958,352.300537 286.256256,352.300537 281.000671,352.300537 
	C281.000671,369.232605 281.000671,385.865509 281.000671,403.497589 
M618.915649,432.514740 
	C616.607849,423.781494 614.195007,415.074371 612.014832,406.309387 
	C607.898804,389.761475 601.963074,373.865784 594.659119,358.503510 
	C593.698120,356.482330 590.726562,354.663544 588.446838,354.314636 
	C587.146912,354.115692 584.722839,356.799683 583.898804,358.667938 
	C577.979980,372.088074 572.341736,385.631989 566.415344,399.605865 
	C564.858154,398.181213 563.815247,397.173248 562.715088,396.232208 
	C560.736328,394.539703 558.899353,392.586884 556.683411,391.288513 
	C553.353699,389.337646 549.903137,391.881226 546.522827,397.921112 
	C537.795959,413.514160 528.933533,429.031342 520.217285,444.630249 
	C519.761108,445.446686 520.158508,446.740051 520.158508,447.411774 
	C530.683228,450.479187 536.062439,445.054810 540.717773,436.944061 
	C546.795044,426.355896 553.725647,416.257538 560.449097,405.697083 
	C564.864441,411.383087 566.881042,418.423767 571.889099,423.206390 
	C572.334961,422.898529 572.780884,422.590668 573.226807,422.282806 
	C571.109741,418.398163 568.992676,414.513519 567.160950,411.152374 
	C577.830139,399.104767 582.161743,384.460358 587.948303,370.327362 
	C588.596558,374.177307 588.383911,378.103271 589.099792,381.851929 
	C591.406494,393.931274 595.300903,405.724548 595.061890,418.243713 
	C594.999939,421.486725 595.488586,424.774414 596.041321,427.987061 
	C596.884949,432.889862 597.678284,437.845520 599.135132,442.581207 
	C599.946411,445.218689 601.714722,449.170807 603.646301,449.557007 
	C609.773193,450.781921 616.177795,450.721344 622.480347,450.819824 
	C623.191467,450.830933 624.790649,448.413513 624.524963,447.592133 
	C622.958313,442.747284 620.961426,438.041534 618.915649,432.514740 
M386.962158,314.593384 
	C389.610992,321.068024 392.259827,327.542633 395.149536,334.606079 
	C409.712830,299.685028 423.914948,265.630035 438.356079,231.001892 
	C432.855621,231.001892 427.911987,230.888214 422.982727,231.103409 
	C422.060913,231.143661 420.762512,232.323807 420.372101,233.278259 
	C415.830811,244.380035 411.449921,255.547272 406.986816,266.681244 
	C403.246490,276.012024 399.453705,285.321777 395.381622,295.388855 
	C386.668549,273.425903 378.287964,252.301025 369.973938,231.343964 
	C364.197205,231.343964 358.667603,231.343964 352.782776,231.343964 
	C358.868622,245.930344 364.866241,260.057678 370.661530,274.267517 
	C376.040283,287.456085 381.203094,300.732727 386.962158,314.593384 
M511.999329,372.599609 
	C511.999329,370.825684 511.999329,369.051758 511.999329,366.887878 
	C519.575928,366.887878 526.655273,366.887878 533.740723,366.887878 
	C533.740723,361.746246 533.740723,357.007782 533.740723,352.258484 
	C513.745544,352.258484 494.010071,352.258484 474.261932,352.258484 
	C474.261932,357.259186 474.261932,361.997711 474.261932,367.127441 
	C481.593628,367.127441 488.672913,367.127441 496.128143,367.127441 
	C496.128143,394.593994 496.128143,421.663635 496.128143,448.735321 
	C501.597778,448.735321 506.669647,448.735321 511.999329,448.735321 
	C511.999329,423.507019 511.999329,398.541809 511.999329,372.599609 
M650.999390,410.500000 
	C650.999390,391.073090 650.999390,371.646210 650.999390,352.288208 
	C645.353821,352.288208 640.281738,352.288208 635.284424,352.288208 
	C635.284424,384.643433 635.284424,416.710297 635.284424,448.711823 
	C640.646057,448.711823 645.718140,448.711823 650.999390,448.711823 
	C650.999390,436.116882 650.999390,423.808441 650.999390,410.500000 
M463.999329,237.574066 
	C463.999329,235.468613 463.999329,233.363174 463.999329,231.266815 
	C458.731323,231.266815 453.992523,231.266815 449.265259,231.266815 
	C449.265259,262.935303 449.265259,294.336884 449.265259,325.730835 
	C454.273407,325.730835 459.012268,325.730835 463.999329,325.730835 
	C463.999329,296.495636 463.999329,267.528137 463.999329,237.574066 
M436.768890,205.689545 
	C434.980988,205.382370 433.183411,204.763962 431.406769,204.819138 
	C420.844879,205.147171 410.286865,205.610565 399.731903,206.119446 
	C399.170349,206.146515 398.648621,206.999039 397.476349,208.015045 
	C399.961090,208.015045 401.612305,208.014999 403.263519,208.015045 
	C472.254456,208.016876 541.245422,208.053085 610.236145,207.927719 
	C614.020508,207.920853 617.788208,206.478882 621.591553,205.882401 
	C623.408264,205.597458 625.614807,205.066696 627.086243,205.787460 
	C633.161194,208.763260 639.381958,207.582794 644.639526,201.077072 
	C641.206177,201.077072 638.600769,201.121109 635.997620,201.064194 
	C633.577454,201.011276 631.159668,200.850754 628.740845,200.737595 
	C628.725281,200.249863 628.709778,199.762115 628.694214,199.274368 
	C627.018188,199.898453 625.388123,200.846939 623.658386,201.092026 
	C614.835327,202.342072 606.008118,203.643082 597.139709,204.468414 
	C590.103333,205.123245 583.002319,205.391800 575.936096,205.309006 
	C571.225464,205.253815 566.525085,203.797714 561.820923,203.802597 
	C543.609253,203.821533 525.398071,204.185455 507.186401,204.399429 
	C497.681763,204.511093 487.977264,205.806061 478.729980,204.305450 
	C470.193756,202.920227 462.275787,207.589554 453.587036,204.558243 
	C448.989807,202.954330 443.050659,205.196777 436.768890,205.689545 
M399.560730,81.162231 
	C398.618469,83.786957 395.647064,85.541496 397.079559,89.230499 
	C398.109741,91.883469 397.873322,95.028275 398.237122,98.267067 
	C399.451202,97.256790 400.892517,96.057419 402.950867,94.344589 
	C404.579773,97.151131 406.074219,99.726021 407.993774,103.033348 
	C412.594849,98.917290 417.495667,95.168793 421.611511,90.697670 
	C427.347595,84.466408 426.412689,70.275772 420.290894,63.933125 
	C418.481140,62.058083 416.677948,61.674023 415.232727,64.571838 
	C413.975037,67.093697 412.670898,69.639954 411.019897,71.908012 
	C407.829620,76.290779 405.792908,76.508369 400.230408,72.542206 
	C399.964539,75.646034 399.764648,77.979584 399.560730,81.162231 
z"/>
<path fill="#FCFCFC" opacity="1.000000" stroke="none" 
	d="
M248.439331,143.369232 
	C253.631775,132.050919 260.811493,122.642891 269.351013,114.162361 
	C270.746002,112.777023 271.345306,110.590508 272.312378,108.774284 
	C270.579773,107.989410 268.918579,106.902748 267.101959,106.472900 
	C259.960938,104.783165 253.657806,110.098862 249.733932,116.990723 
	C248.183685,119.713577 247.090378,123.026489 244.836533,124.961090 
	C235.635834,132.858612 226.130585,140.409073 216.555145,147.852753 
	C215.318634,148.813980 213.021133,148.464981 211.206024,148.604889 
	C210.261490,148.677673 208.956085,148.055420 208.395248,148.492813 
	C203.598663,152.233551 198.653854,155.860840 194.348602,160.123260 
	C192.127121,162.322632 191.699295,166.445190 189.368317,168.387207 
	C187.504242,169.940186 183.989105,169.511383 179.685059,170.208710 
	C182.253265,164.998703 183.766800,160.749985 186.232086,157.153687 
	C192.929337,147.383881 200.152649,138.027954 210.625656,131.818390 
	C212.315887,130.816238 213.884857,129.421036 215.138626,127.901245 
	C225.106491,115.818527 238.355759,107.555763 250.185577,97.644951 
	C250.534073,97.352982 251.062912,97.276276 251.503174,97.100990 
	C251.729630,97.427841 252.098846,97.754211 252.037476,97.903137 
	C251.093857,100.193062 248.661636,102.575150 252.560822,104.470680 
	C256.405396,106.339645 257.063202,102.897308 258.308777,100.823006 
	C260.289093,97.525116 261.917725,94.016953 263.869385,90.700264 
	C264.314484,89.943855 265.412109,89.289886 266.308716,89.123299 
	C278.108551,86.930908 287.171021,78.892372 297.910553,74.472733 
	C299.708282,73.732903 301.831696,73.784508 305.039795,73.273773 
	C300.268372,86.228859 296.342926,97.794830 291.723328,109.076553 
	C289.109528,115.459862 284.600037,121.115547 282.365570,127.589470 
	C280.716675,132.366882 277.177673,136.872147 280.288239,143.270325 
	C283.463013,149.800568 276.982788,159.061996 269.481567,160.250595 
	C267.467773,160.569702 265.163025,158.420410 262.878815,157.916367 
	C261.626862,157.640091 259.242065,158.043976 258.909973,158.809784 
	C257.323517,162.468353 256.266632,166.356400 255.018066,170.161758 
	C254.633545,171.333664 254.134064,172.479340 253.872757,173.677475 
	C253.492844,175.419617 252.467438,177.787552 253.207474,178.809647 
	C254.094391,180.034576 256.756653,180.926376 258.279724,180.532028 
	C261.097443,179.802475 263.722046,178.162445 266.285309,176.659775 
	C269.003754,175.066147 271.590790,173.238525 274.164856,171.413818 
	C275.078766,170.765976 275.998169,169.949387 276.549408,168.997971 
	C278.562988,165.522720 280.505157,161.999817 282.311615,158.412964 
	C283.585144,155.884323 285.059021,153.319550 285.624542,150.600586 
	C286.719208,145.337952 294.290741,140.280655 299.612488,140.886826 
	C302.393066,141.203506 305.887268,140.534424 308.164520,138.990799 
	C314.725372,134.543594 327.908142,115.504417 331.174347,106.330299 
	C328.952362,107.322227 327.056763,107.577019 326.184814,108.657722 
	C321.880768,113.992264 317.944244,119.622734 313.657684,124.972237 
	C312.444611,126.486069 310.488495,127.404472 308.423737,128.927460 
	C308.211334,119.475754 311.835938,112.684326 316.384674,105.694710 
	C327.805725,88.144791 343.868164,74.621445 356.357178,58.050457 
	C363.071228,49.141979 369.980133,40.380489 376.756927,31.518892 
	C377.245605,30.879881 377.372070,29.963923 377.666962,29.176756 
	C378.242981,29.593304 378.818970,30.009851 379.394989,30.426399 
	C378.435883,32.767776 377.678802,35.219624 376.472382,37.425770 
	C374.438446,41.145115 375.640656,43.796837 378.047272,46.975796 
	C380.210968,49.833900 382.092133,53.536861 382.437775,57.031368 
	C383.956757,72.387459 382.630188,76.737579 374.928986,91.294174 
	C373.123505,94.706856 372.108154,98.622520 371.317291,102.428940 
	C371.112488,103.414551 373.130920,104.862083 374.961792,107.130219 
	C372.615723,112.602524 369.687988,119.221962 366.950623,125.919212 
	C365.849731,128.612686 365.396667,131.579544 364.214996,134.228485 
	C363.379272,136.101944 362.120544,138.053192 360.518951,139.269745 
	C355.219757,143.294907 349.617493,146.919312 344.276154,150.891998 
	C342.975220,151.859589 342.227570,153.571045 341.225525,154.940475 
	C342.822083,155.148392 344.415710,155.384476 346.016632,155.550278 
	C346.651245,155.616028 347.501984,155.250229 347.914185,155.549469 
	C351.696381,158.295212 354.035767,155.399979 356.603638,153.424576 
	C359.094482,151.508438 361.554413,149.606583 363.385071,152.252869 
	C357.798187,164.675323 352.588470,176.471497 347.174744,188.173309 
	C345.444733,191.912720 343.070068,195.349670 341.214935,199.037979 
	C340.668030,200.125351 340.890717,201.599838 340.760742,202.896942 
	C342.108307,202.599075 343.959351,202.755768 344.712555,201.921387 
	C347.375916,198.971069 349.770752,195.757462 352.072266,192.505585 
	C357.440399,184.920761 362.382355,177.009262 368.122498,169.722885 
	C371.182770,165.838211 374.812408,162.546295 377.572571,158.204834 
	C381.547089,151.953262 387.082428,146.705399 391.824982,140.925262 
	C393.788940,138.531570 395.304688,135.771408 397.254578,133.364441 
	C398.484467,131.846237 400.140656,130.673340 402.013458,128.975891 
	C401.851685,138.469849 399.280579,146.082977 394.601868,153.110535 
	C393.671753,154.507599 394.070312,156.789291 393.856201,158.663055 
	C396.031158,158.761002 398.742889,159.733353 400.278931,158.790466 
	C404.627777,156.120880 408.865936,153.029800 412.422089,149.394852 
	C414.789368,146.975082 417.332214,146.499451 419.826263,147.218033 
	C437.757874,152.384247 446.702118,139.992432 448.013885,127.095840 
	C450.258301,105.030266 460.342468,86.331467 473.689087,68.433472 
	C474.108582,75.521790 474.455139,82.615601 474.989258,89.695267 
	C475.163269,92.001472 475.444824,94.443535 476.378204,96.506256 
	C477.238434,98.407280 478.825806,100.138336 480.460754,101.503754 
	C490.423615,109.824005 490.640167,120.663528 488.453949,132.067856 
	C487.032745,139.481659 487.271851,140.284439 494.578125,141.958710 
	C498.176239,142.783249 500.362488,143.925995 499.543427,148.273544 
	C499.331268,149.399612 501.336639,150.847610 502.070496,152.277542 
	C502.677399,153.460068 503.570435,155.082825 503.194153,156.078995 
	C501.731232,159.952148 499.768372,163.633392 498.073730,167.422791 
	C495.091522,174.091248 492.039337,180.733109 489.261566,187.486893 
	C486.804993,193.459610 484.122314,194.955536 478.045258,193.077209 
	C476.777466,192.685333 475.585297,192.045013 474.313965,191.668991 
	C470.152893,190.438263 468.547760,187.993774 470.864624,184.712631 
	C476.998352,176.025864 473.239685,168.096786 470.017242,159.866302 
	C468.874481,156.947601 468.382233,153.699951 468.049438,150.554184 
	C467.402374,144.437866 467.223053,138.270920 466.529968,132.161255 
	C466.326416,130.366730 465.044891,128.694473 463.626617,125.581772 
	C462.155670,128.760941 460.896881,130.530624 460.521912,132.471085 
	C459.419647,138.175201 458.348206,143.919418 457.847900,149.698410 
	C456.883331,160.839874 453.417969,171.163208 448.418304,181.038666 
	C447.609222,182.636765 446.498413,184.394150 445.041687,185.276428 
	C443.043427,186.486694 440.366547,187.860626 438.387970,187.402924 
	C436.872498,187.052338 435.630066,184.103775 434.897888,182.081970 
	C433.407288,177.965836 433.647369,174.038177 436.966644,170.565338 
	C437.961731,169.524246 438.087402,167.652206 438.611420,166.160873 
	C438.298645,165.820282 437.985870,165.479706 437.673126,165.139130 
	C436.114807,165.975632 434.228638,166.492950 433.052307,167.701309 
	C426.253662,174.684814 417.069214,177.556107 408.356506,177.438461 
	C397.723572,177.294876 390.353424,181.507492 383.299652,188.160400 
	C378.212982,192.958023 373.039185,197.666809 367.799561,202.296707 
	C365.979797,203.904709 363.845581,205.156891 361.854950,206.571579 
	C362.120361,206.955124 362.385773,207.338684 362.651184,207.722244 
	C290.612152,207.722244 218.573105,207.722244 146.173248,207.722244 
	C149.813965,203.230789 158.939987,207.009689 159.329620,198.988403 
	C162.051636,196.873428 164.727005,194.876114 167.308517,192.764084 
	C169.527100,190.948975 171.307343,190.088989 174.301285,192.085724 
	C178.368774,194.798431 180.973679,191.538193 183.246124,188.464722 
	C187.292343,182.992157 191.370346,177.543091 195.435364,172.084427 
	C196.025726,171.291672 196.617645,170.500076 197.326340,169.550446 
	C198.815323,170.965424 199.872345,171.969910 200.476791,172.544312 
	C203.865799,171.570984 206.863235,170.922287 209.682571,169.818649 
	C211.303680,169.184067 212.701111,167.891418 214.084137,166.754929 
	C216.341537,164.899887 218.502319,162.927383 220.711533,161.013306 
	C220.952911,160.804184 221.497650,160.613678 221.476898,160.480972 
	C220.371140,153.412735 228.152222,152.417664 230.448883,147.602036 
	C230.848312,146.764526 234.004578,146.448364 235.423721,147.027649 
	C241.644043,149.566635 243.974838,149.112259 248.439331,143.369232 
z"/>
<path fill="#FFFFFF" opacity="1.000000" stroke="none" 
	d="
M106.712090,427.723145 
	C102.572586,436.648132 98.681427,445.270721 94.362930,454.840240 
	C85.125359,433.990295 76.239075,413.933228 66.814720,392.661713 
	C63.323353,412.240662 60.078796,430.435516 56.802788,448.806732 
	C51.633652,448.806732 46.521221,448.806732 40.667625,448.806732 
	C47.459583,414.124664 54.204227,379.684204 60.948872,345.243744 
	C61.297626,345.155518 61.646381,345.067291 61.995140,344.979065 
	C72.844673,369.500824 83.694214,394.022552 94.627144,418.732788 
	C105.904419,394.107178 117.189552,369.464417 128.474686,344.821655 
	C128.807114,344.882507 129.139557,344.943359 129.471985,345.004242 
	C135.534470,379.583191 141.596939,414.162170 147.704590,448.998779 
	C143.213287,448.998779 138.873230,449.219391 134.581238,448.862274 
	C133.318405,448.757202 131.323318,447.159149 131.132782,446.003204 
	C128.246872,428.494537 125.605797,410.945496 122.778725,392.569519 
	C117.262772,404.722412 112.111603,416.071564 106.712090,427.723145 
z"/>
<path fill="#FFFFFF" opacity="1.000000" stroke="none" 
	d="
M181.287949,288.724701 
	C182.423279,291.253540 183.307648,293.478851 184.477356,296.422058 
	C195.728668,271.881805 206.702499,247.946732 217.676331,224.011658 
	C218.050125,223.964996 218.423904,223.918350 218.797684,223.871689 
	C224.782532,257.742004 230.767380,291.612335 236.796249,325.731873 
	C231.774979,325.731873 226.695251,325.731873 221.044525,325.731873 
	C218.174210,307.970917 215.275375,290.033478 212.163834,270.779877 
	C202.649200,291.664581 193.760132,311.176239 184.359985,331.809692 
	C175.166397,311.066864 166.357285,291.191498 157.246597,270.635712 
	C154.078384,288.662292 151.086380,305.973297 147.879715,323.244446 
	C147.679611,324.322235 145.851379,325.781982 144.687378,325.873138 
	C140.576447,326.195007 136.424927,325.998383 131.515213,325.998383 
	C138.218079,291.681763 144.819839,257.882782 151.421616,224.083817 
	C151.807770,223.959396 152.193909,223.834976 152.580063,223.710541 
	C162.065704,245.280746 171.551361,266.850952 181.287949,288.724701 
z"/>
<path fill="#FFFFFF" opacity="1.000000" stroke="none" 
	d="
M751.968994,352.000671 
	C754.437744,352.000671 756.418701,352.000671 758.698853,352.000671 
	C758.698853,386.371490 758.698853,420.551392 758.698853,456.031525 
	C735.261719,431.570190 712.522156,407.836884 689.017212,383.304718 
	C689.017212,405.839752 689.017212,427.212341 689.017212,448.790039 
	C683.555847,448.790039 678.485657,448.790039 673.207581,448.790039 
	C673.207581,414.535675 673.207581,380.450073 673.207581,344.617432 
	C696.769470,369.285858 719.472656,393.055237 742.789429,417.467102 
	C742.789429,395.288055 742.789429,373.937561 742.789429,352.000671 
	C745.948486,352.000671 748.714844,352.000671 751.968994,352.000671 
z"/>
<path fill="#FFFFFF" opacity="1.000000" stroke="none" 
	d="
M376.000671,439.962158 
	C376.000671,408.390076 376.000671,377.313904 376.000671,346.237732 
	C376.382874,346.019501 376.765106,345.801270 377.147308,345.583038 
	C399.845978,369.354370 422.544647,393.125732 445.853516,417.536102 
	C445.853516,395.247864 445.853516,373.990265 445.853516,352.366882 
	C451.112213,352.366882 456.191193,352.366882 461.636200,352.366882 
	C461.636200,386.260315 461.636200,420.458679 461.636200,455.959747 
	C438.307617,431.612854 415.567139,407.879761 392.166321,383.457520 
	C392.166321,405.741211 392.166321,427.096466 392.166321,448.723999 
	C386.694611,448.723999 381.622925,448.723999 376.000671,448.723999 
	C376.000671,446.003082 376.000671,443.230591 376.000671,439.962158 
z"/>
<path fill="#FFFFFF" opacity="1.000000" stroke="none" 
	d="
M181.318069,361.185944 
	C191.438644,353.425385 202.589264,349.615143 214.945374,350.050934 
	C237.986557,350.863647 258.876129,367.944733 263.181671,391.345978 
	C268.085876,418.001038 251.825623,442.894684 226.972427,449.359589 
	C208.774384,454.093353 192.034134,450.500671 177.702805,437.327698 
	C167.063431,427.548279 162.342026,415.308380 162.142715,401.410034 
	C161.945297,387.645325 166.234863,375.251160 176.814301,365.665527 
	C178.291962,364.326752 179.639450,362.844269 181.318069,361.185944 
M208.504990,436.000000 
	C211.143784,436.000183 213.785599,436.082916 216.420853,435.986389 
	C228.089676,435.558960 237.043991,429.513123 242.757843,420.182922 
	C254.792648,400.531097 247.136993,373.794495 222.910217,366.360413 
	C207.826324,361.731873 190.903473,368.796051 183.011475,382.056915 
	C169.963043,403.982056 183.195312,431.817627 208.504990,436.000000 
z"/>
<path fill="#FFFFFF" opacity="1.000000" stroke="none" 
	d="
M264.238098,245.263824 
	C276.045502,231.997192 290.975983,227.417007 307.680847,229.135681 
	C327.991089,231.225296 345.252716,246.248688 349.930298,266.921722 
	C356.024536,293.855927 341.684387,318.546692 315.039612,326.320740 
	C299.048737,330.986389 283.902710,327.765717 270.370941,317.849304 
	C255.867432,307.220764 250.216019,292.363831 251.138214,275.008179 
	C251.732758,263.818848 255.788406,253.640274 264.238098,245.263824 
M274.966797,255.553162 
	C263.086304,268.328369 264.274139,292.466156 277.489349,303.989532 
	C285.920593,311.341400 295.230499,314.962616 306.766510,313.113800 
	C325.627747,310.091034 336.648376,293.297241 335.809235,276.579437 
	C335.298615,266.407043 330.745728,257.712921 322.562653,250.846710 
	C316.047791,245.380280 308.400574,243.177475 300.670929,243.293991 
	C290.985535,243.439987 282.032349,247.180313 274.966797,255.553162 
z"/>
<path fill="#FFFFFF" opacity="1.000000" stroke="none" 
	d="
M555.000610,263.000000 
	C555.000610,252.192947 555.000610,241.885880 555.000610,231.290405 
	C559.942383,231.290405 564.680603,231.290405 569.712158,231.290405 
	C569.712158,264.608643 569.712158,298.002289 569.712158,332.451080 
	C546.679871,308.485260 524.098083,284.988281 501.187500,261.149139 
	C501.187500,282.744324 501.187500,304.086548 501.187500,325.712646 
	C496.049500,325.712646 491.311737,325.712646 486.284821,325.712646 
	C486.284821,292.052795 486.284821,258.326752 486.284821,223.619461 
	C509.206177,247.635162 531.710693,271.214050 555.000610,295.615936 
	C555.000610,284.256561 555.000610,273.878296 555.000610,263.000000 
z"/>
<path fill="#FFFFFF" opacity="1.000000" stroke="none" 
	d="
M601.220947,312.717590 
	C591.076172,301.677155 586.848816,288.706329 588.141418,274.429596 
	C590.085449,252.959198 604.866516,234.703568 626.511536,230.089767 
	C647.233887,225.672623 664.421936,232.161484 677.634705,248.443451 
	C674.275208,251.891312 670.801514,255.456390 667.833069,258.502930 
	C662.482971,254.445541 657.688416,249.770660 652.023132,246.704712 
	C633.845703,236.867325 609.088928,249.668289 604.907410,269.372192 
	C600.416626,290.533752 610.944397,305.945343 628.758118,312.414398 
	C645.405823,318.459961 663.569702,304.398499 664.911865,291.283997 
	C657.497559,291.283997 650.105713,291.283997 642.357300,291.283997 
	C642.357300,286.198242 642.357300,281.454865 642.357300,276.000671 
	C648.642700,276.000671 655.225525,276.000671 661.808350,276.000671 
	C668.426086,276.000671 675.043823,276.000671 681.631470,276.000671 
	C682.762817,298.576447 675.947815,314.794891 656.848389,323.897888 
	C639.440308,332.194763 616.683716,329.306458 601.220947,312.717590 
z"/>
<path fill="#FFFFFF" opacity="1.000000" stroke="none" 
	d="
M281.000671,402.997986 
	C281.000671,385.865509 281.000671,369.232605 281.000671,352.300537 
	C286.256256,352.300537 291.325958,352.300537 296.771423,352.300537 
	C296.842560,353.600739 296.988068,355.032867 296.989197,356.465118 
	C297.004303,375.780853 297.051300,395.096741 296.980347,414.412231 
	C296.935974,426.486115 303.288666,435.006073 316.487366,436.814362 
	C325.671021,438.072601 335.792908,429.940308 336.905701,420.109863 
	C337.718384,412.930725 337.885193,405.655853 337.955444,398.419952 
	C338.103912,383.128418 338.000671,367.834412 338.000671,352.271667 
	C342.979980,352.271667 347.716461,352.271667 352.793793,352.271667 
	C352.860962,353.668915 352.989380,355.107880 352.990356,356.546936 
	C353.003571,376.528717 352.581238,396.521790 353.120392,416.489014 
	C353.629517,435.344452 336.333191,451.483246 318.300293,451.114471 
	C302.277924,450.786835 290.539978,444.429077 283.967621,429.589081 
	C280.275543,421.252594 280.957428,412.314392 281.000671,402.997986 
z"/>
<path fill="#FEFEFE" opacity="1.000000" stroke="none" 
	d="
M619.012512,432.901855 
	C620.961426,438.041534 622.958313,442.747284 624.524963,447.592133 
	C624.790649,448.413513 623.191467,450.830933 622.480347,450.819824 
	C616.177795,450.721344 609.773193,450.781921 603.646301,449.557007 
	C601.714722,449.170807 599.946411,445.218689 599.135132,442.581207 
	C597.678284,437.845520 596.884949,432.889862 596.041321,427.987061 
	C595.488586,424.774414 594.999939,421.486725 595.061890,418.243713 
	C595.300903,405.724548 591.406494,393.931274 589.099792,381.851929 
	C588.383911,378.103271 588.596558,374.177307 587.948303,370.327362 
	C582.161743,384.460358 577.830139,399.104767 567.160950,411.152374 
	C568.992676,414.513519 571.109741,418.398163 573.226807,422.282806 
	C572.780884,422.590668 572.334961,422.898529 571.889099,423.206390 
	C566.881042,418.423767 564.864441,411.383087 560.449097,405.697083 
	C553.725647,416.257538 546.795044,426.355896 540.717773,436.944061 
	C536.062439,445.054810 530.683228,450.479187 520.158508,447.411774 
	C520.158508,446.740051 519.761108,445.446686 520.217285,444.630249 
	C528.933533,429.031342 537.795959,413.514160 546.522827,397.921112 
	C549.903137,391.881226 553.353699,389.337646 556.683411,391.288513 
	C558.899353,392.586884 560.736328,394.539703 562.715088,396.232208 
	C563.815247,397.173248 564.858154,398.181213 566.415344,399.605865 
	C572.341736,385.631989 577.979980,372.088074 583.898804,358.667938 
	C584.722839,356.799683 587.146912,354.115692 588.446838,354.314636 
	C590.726562,354.663544 593.698120,356.482330 594.659119,358.503510 
	C601.963074,373.865784 607.898804,389.761475 612.014832,406.309387 
	C614.195007,415.074371 616.607849,423.781494 619.012512,432.901855 
z"/>
<path fill="#FFFFFF" opacity="1.000000" stroke="none" 
	d="
M386.711578,314.281982 
	C381.203094,300.732727 376.040283,287.456085 370.661530,274.267517 
	C364.866241,260.057678 358.868622,245.930344 352.782776,231.343964 
	C358.667603,231.343964 364.197205,231.343964 369.973938,231.343964 
	C378.287964,252.301025 386.668549,273.425903 395.381622,295.388855 
	C399.453705,285.321777 403.246490,276.012024 406.986816,266.681244 
	C411.449921,255.547272 415.830811,244.380035 420.372101,233.278259 
	C420.762512,232.323807 422.060913,231.143661 422.982727,231.103409 
	C427.911987,230.888214 432.855621,231.001892 438.356079,231.001892 
	C423.914948,265.630035 409.712830,299.685028 395.149536,334.606079 
	C392.259827,327.542633 389.610992,321.068024 386.711578,314.281982 
z"/>
<path fill="#FFFFFF" opacity="1.000000" stroke="none" 
	d="
M511.999329,373.088104 
	C511.999329,398.541809 511.999329,423.507019 511.999329,448.735321 
	C506.669647,448.735321 501.597778,448.735321 496.128143,448.735321 
	C496.128143,421.663635 496.128143,394.593994 496.128143,367.127441 
	C488.672913,367.127441 481.593628,367.127441 474.261932,367.127441 
	C474.261932,361.997711 474.261932,357.259186 474.261932,352.258484 
	C494.010071,352.258484 513.745544,352.258484 533.740723,352.258484 
	C533.740723,357.007782 533.740723,361.746246 533.740723,366.887878 
	C526.655273,366.887878 519.575928,366.887878 511.999329,366.887878 
	C511.999329,370.825684 511.999329,370.825684 511.999329,373.088104 
z"/>
<path fill="#FFFFFF" opacity="1.000000" stroke="none" 
	d="
M650.999390,411.000000 
	C650.999390,423.808441 650.999390,436.116882 650.999390,448.711823 
	C645.718140,448.711823 640.646057,448.711823 635.284424,448.711823 
	C635.284424,416.710297 635.284424,384.643433 635.284424,352.288208 
	C640.281738,352.288208 645.353821,352.288208 650.999390,352.288208 
	C650.999390,371.646210 650.999390,391.073090 650.999390,411.000000 
z"/>
<path fill="#FFFFFF" opacity="1.000000" stroke="none" 
	d="
M463.999329,238.067368 
	C463.999329,267.528137 463.999329,296.495636 463.999329,325.730835 
	C459.012268,325.730835 454.273407,325.730835 449.265259,325.730835 
	C449.265259,294.336884 449.265259,262.935303 449.265259,231.266815 
	C453.992523,231.266815 458.731323,231.266815 463.999329,231.266815 
	C463.999329,233.363174 463.999329,235.468613 463.999329,238.067368 
z"/>
<path fill="#F4F4F4" opacity="1.000000" stroke="none" 
	d="
M437.243103,205.696136 
	C443.050659,205.196777 448.989807,202.954330 453.587036,204.558243 
	C462.275787,207.589554 470.193756,202.920227 478.729980,204.305450 
	C487.977264,205.806061 497.681763,204.511093 507.186401,204.399429 
	C525.398071,204.185455 543.609253,203.821533 561.820923,203.802597 
	C566.525085,203.797714 571.225464,205.253815 575.936096,205.309006 
	C583.002319,205.391800 590.103333,205.123245 597.139709,204.468414 
	C606.008118,203.643082 614.835327,202.342072 623.658386,201.092026 
	C625.388123,200.846939 627.018188,199.898453 628.694214,199.274368 
	C628.709778,199.762115 628.725281,200.249863 628.740845,200.737595 
	C631.159668,200.850754 633.577454,201.011276 635.997620,201.064194 
	C638.600769,201.121109 641.206177,201.077072 644.639526,201.077072 
	C639.381958,207.582794 633.161194,208.763260 627.086243,205.787460 
	C625.614807,205.066696 623.408264,205.597458 621.591553,205.882401 
	C617.788208,206.478882 614.020508,207.920853 610.236145,207.927719 
	C541.245422,208.053085 472.254456,208.016876 403.263519,208.015045 
	C401.612305,208.014999 399.961090,208.015045 397.476349,208.015045 
	C398.648621,206.999039 399.170349,206.146515 399.731903,206.119446 
	C410.286865,205.610565 420.844879,205.147171 431.406769,204.819138 
	C433.183411,204.763962 434.980988,205.382370 437.243103,205.696136 
z"/>
<path fill="#F7F7F7" opacity="1.000000" stroke="none" 
	d="
M399.562744,80.737686 
	C399.764648,77.979584 399.964539,75.646034 400.230408,72.542206 
	C405.792908,76.508369 407.829620,76.290779 411.019897,71.908012 
	C412.670898,69.639954 413.975037,67.093697 415.232727,64.571838 
	C416.677948,61.674023 418.481140,62.058083 420.290894,63.933125 
	C426.412689,70.275772 427.347595,84.466408 421.611511,90.697670 
	C417.495667,95.168793 412.594849,98.917290 407.993774,103.033348 
	C406.074219,99.726021 404.579773,97.151131 402.950867,94.344589 
	C400.892517,96.057419 399.451202,97.256790 398.237122,98.267067 
	C397.873322,95.028275 398.109741,91.883469 397.079559,89.230499 
	C395.647064,85.541496 398.618469,83.786957 399.562744,80.737686 
z"/>
<path fill="#000000" opacity="1.000000" stroke="none" 
	d="
M208.071716,435.999939 
	C183.195312,431.817627 169.963043,403.982056 183.011475,382.056915 
	C190.903473,368.796051 207.826324,361.731873 222.910217,366.360413 
	C247.136993,373.794495 254.792648,400.531097 242.757843,420.182922 
	C237.043991,429.513123 228.089676,435.558960 216.420853,435.986389 
	C213.785599,436.082916 211.143784,436.000183 208.071716,435.999939 
z"/>
<path fill="#000000" opacity="1.000000" stroke="none" 
	d="
M275.213806,255.289215 
	C282.032349,247.180313 290.985535,243.439987 300.670929,243.293991 
	C308.400574,243.177475 316.047791,245.380280 322.562653,250.846710 
	C330.745728,257.712921 335.298615,266.407043 335.809235,276.579437 
	C336.648376,293.297241 325.627747,310.091034 306.766510,313.113800 
	C295.230499,314.962616 285.920593,311.341400 277.489349,303.989532 
	C264.274139,292.466156 263.086304,268.328369 275.213806,255.289215 
z"/>
</svg>